<svg xmlns="http://www.w3.org/2000/svg" viewBox="0 0 13.1 13.1">
  <path fill-rule="evenodd" d="M12.8 9.7L11 8a1.2 1.2 0 00-1.6 0l-.7.8a.9.9 0 01-1.3 0L4.3 5.6a.9.9 0 010-1.3l.8-.7A1.2 1.2 0 005 2L3.4.3a1.2 1.2 0 00-1.6 0l-.6.6a4.2 4.2 0 000 5.9l5 5a4.1 4.1 0 006 0l.6-.5a1.2 1.2 0 000-1.6zM2.3.9a.4.4 0 01.6 0l1.6 1.6a.4.4 0 010 .5l-.3.3-2.1-2.2zm4.5 10.4l-5-5a3.4 3.4 0 01-.3-4.6l2.2 2.2a1.6 1.6 0 000 2.2L7 9.3a1.6 1.6 0 002.2 0l2.2 2.2a3.4 3.4 0 01-4.6-.2zm5.4-.6l-.3.3-2.1-2.2.2-.2a.4.4 0 01.6 0l1.6 1.6a.4.4 0 010 .5z" />
</svg>