<svg xmlns="http://www.w3.org/2000/svg" style="border: 0 !important; clip: rect(0 0 0 0) !important; height: 1px !important; margin: -1px !important; overflow: hidden !important; padding: 0 !important; position: absolute !important; width: 1px !important;" class="root-svg-symbols-element">
    <symbol id="arrow" viewBox="0 0 17.1 7.9">
      <path fill-rule="evenodd" d="M6.3.9l-6.1 6a.6.6 0 000 .8.6.6 0 001 0l6-5.9a2 2 0 012.8 0l6 6a.6.6 0 001 0 .8.8 0 000-.6v-.4L11 1A3.8 3.8 0 008.6 0a3.2 3.2 0 00-2.3.9z"/>
    </symbol>
    <symbol id="date" viewBox="0 0 22.156 21.32">
      <path id="Forma_1" data-name="Forma 1" d="M890.934,1699.48h-2.767v-0.71a0.692,0.692,0,1,0-1.383,0v0.71h-6.917v-0.71a0.692,0.692,0,1,0-1.384,0v0.71h-2.766a3.47,3.47,0,0,0-3.459,3.55v12.79a3.479,3.479,0,0,0,3.459,3.56h15.217a3.479,3.479,0,0,0,3.459-3.56v-12.79A3.47,3.47,0,0,0,890.934,1699.48Zm-17.292,3.55a2.153,2.153,0,0,1,2.075-2.13h2.766v0.71a0.692,0.692,0,1,0,1.384,0v-0.71h6.917v0.71a0.692,0.692,0,1,0,1.383,0v-0.71h2.767a2.153,2.153,0,0,1,2.075,2.13v2.13H873.642v-2.13Zm19.367,12.79a2.162,2.162,0,0,1-2.075,2.14H875.717a2.162,2.162,0,0,1-2.075-2.14v-9.23h19.367v9.23Zm-15.909,0a1.247,1.247,0,0,0,.968-0.42,1.567,1.567,0,0,0,.415-1,1.544,1.544,0,0,0-.415-0.99,1.383,1.383,0,0,0-2.351.99,1.567,1.567,0,0,0,.415,1A1.247,1.247,0,0,0,877.1,1715.82Zm0-4.26a1.224,1.224,0,0,0,.968-0.43,1.544,1.544,0,0,0,.415-0.99,1.588,1.588,0,0,0-.415-1,1.383,1.383,0,0,0-2.351,1,1.284,1.284,0,0,0,.415.99A1.224,1.224,0,0,0,877.1,1711.56Zm4.15,4.26a1.251,1.251,0,0,0,.969-0.42,1.573,1.573,0,0,0,.415-1,1.549,1.549,0,0,0-.415-0.99,1.311,1.311,0,0,0-1.937,0,1.544,1.544,0,0,0-.415.99,1.567,1.567,0,0,0,.415,1A1.249,1.249,0,0,0,881.25,1715.82Zm0-4.26a1.227,1.227,0,0,0,.969-0.43,1.549,1.549,0,0,0,.415-0.99,1.594,1.594,0,0,0-.415-1,1.327,1.327,0,0,0-1.937,0,1.588,1.588,0,0,0-.415,1,1.544,1.544,0,0,0,.415.99A1.225,1.225,0,0,0,881.25,1711.56Zm4.151,4.26a1.25,1.25,0,0,0,.968-0.42,1.324,1.324,0,0,0,.415-1,1.384,1.384,0,0,0-2.352-.99,1.544,1.544,0,0,0-.415.99,1.567,1.567,0,0,0,.415,1A1.249,1.249,0,0,0,885.4,1715.82Zm0-4.26a1.226,1.226,0,0,0,.968-0.43,1.287,1.287,0,0,0,.415-0.99,1.594,1.594,0,0,0-.415-1,1.327,1.327,0,0,0-1.937,0,1.588,1.588,0,0,0-.415,1,1.544,1.544,0,0,0,.415.99A1.226,1.226,0,0,0,885.4,1711.56Zm4.15,4.26a1.249,1.249,0,0,0,.968-0.42,1.567,1.567,0,0,0,.415-1,1.544,1.544,0,0,0-.415-0.99,1.384,1.384,0,0,0-2.352.99,1.573,1.573,0,0,0,.415,1A1.251,1.251,0,0,0,889.551,1715.82Zm0-4.26a1.225,1.225,0,0,0,.968-0.43,1.284,1.284,0,0,0,.415-0.99,1.588,1.588,0,0,0-.415-1,1.327,1.327,0,0,0-1.937,0,1.594,1.594,0,0,0-.415,1,1.549,1.549,0,0,0,.415.99A1.227,1.227,0,0,0,889.551,1711.56Z" transform="translate(-872.25 -1698.06)" fill="#d10f8d" fill-rule="evenodd"/>
    </symbol>
    <symbol id="facebook" viewBox="0 0 512 512">
      <path d="m75 512h167v-182h-60v-60h60v-75c0-41.355469 33.644531-75 75-75h75v60h-60c-16.542969 0-30 13.457031-30 30v60h87.292969l-10 60h-77.292969v182h135c41.355469 0 75-33.644531 75-75v-362c0-41.355469-33.644531-75-75-75h-362c-41.355469 0-75 33.644531-75 75v362c0 41.355469 33.644531 75 75 75zm-45-437c0-24.8125 20.1875-45 45-45h362c24.8125 0 45 20.1875 45 45v362c0 24.8125-20.1875 45-45 45h-105v-122h72.707031l20-120h-92.707031v-30h90v-120h-105c-57.898438 0-105 47.101562-105 105v45h-60v120h60v122h-137c-24.8125 0-45-20.1875-45-45zm0 0"/>
    </symbol>
    <symbol id="instagram" viewBox="0 0 512.001 512.001">
      <path d="m373.40625 0h-234.8125c-76.421875 0-138.59375 62.171875-138.59375 138.59375v234.816406c0 76.417969 62.171875 138.589844 138.59375 138.589844h234.816406c76.417969 0 138.589844-62.171875 138.589844-138.589844v-234.816406c0-76.421875-62.171875-138.59375-138.59375-138.59375zm108.578125 373.410156c0 59.867188-48.707031 108.574219-108.578125 108.574219h-234.8125c-59.871094 0-108.578125-48.707031-108.578125-108.574219v-234.816406c0-59.871094 48.707031-108.578125 108.578125-108.578125h234.816406c59.867188 0 108.574219 48.707031 108.574219 108.578125zm0 0"/><path d="m256 116.003906c-77.195312 0-139.996094 62.800782-139.996094 139.996094s62.800782 139.996094 139.996094 139.996094 139.996094-62.800782 139.996094-139.996094-62.800782-139.996094-139.996094-139.996094zm0 249.976563c-60.640625 0-109.980469-49.335938-109.980469-109.980469 0-60.640625 49.339844-109.980469 109.980469-109.980469 60.644531 0 109.980469 49.339844 109.980469 109.980469 0 60.644531-49.335938 109.980469-109.980469 109.980469zm0 0"/><path d="m399.34375 66.285156c-22.8125 0-41.367188 18.558594-41.367188 41.367188 0 22.8125 18.554688 41.371094 41.367188 41.371094s41.371094-18.558594 41.371094-41.371094-18.558594-41.367188-41.371094-41.367188zm0 52.71875c-6.257812 0-11.351562-5.09375-11.351562-11.351562 0-6.261719 5.09375-11.351563 11.351562-11.351563 6.261719 0 11.355469 5.089844 11.355469 11.351563 0 6.257812-5.09375 11.351562-11.355469 11.351562zm0 0"/>
    </symbol>
    <symbol id="odnoklassniki" viewBox="0 0 512 512">
      <path d="M256.016,0c-70.592,0-128,57.408-128,128s57.408,128,128,128s128-57.408,128-128S326.608,0,256.016,0z M256.016,224 c-52.928,0-96-43.072-96-96c0-52.928,43.072-96,96-96c52.928,0,96,43.072,96,96S308.944,224,256.016,224z"/><path d="M381.136,486.816l-112-160c-5.952-8.512-20.192-8.512-26.208,0l-112,160c-5.056,7.232-3.328,17.216,3.936,22.272 c7.232,5.088,17.216,3.328,22.272-3.904l98.88-141.28l98.912,141.28c3.104,4.448,8.064,6.816,13.088,6.816 c3.2,0,6.368-0.928,9.216-2.912C384.464,504.032,386.224,494.08,381.136,486.816z"/><path d="M414.384,263.744c-6.24-6.24-16.384-6.24-22.624,0c-74.912,74.88-196.672,74.88-271.52,0c-6.24-6.24-16.384-6.24-22.624,0 s-6.24,16.384,0,22.624c43.68,43.648,101.056,65.504,158.4,65.504s114.72-21.856,158.368-65.504 C420.624,280.128,420.624,269.984,414.384,263.744z"/>
    </symbol>
    <symbol id="pcale2" viewBox="0 0 14.78 21.31">
      <path id="pcale2" d="M1222.96,1702.76a7.159,7.159,0,0,0-6.41-3.88,7.556,7.556,0,0,0-3.9,1.18c-3.43,2.12-4.46,6.95-2.4,10.6l4.81,8.59a1.643,1.643,0,0,0,2.98,0l4.92-8.83v-0.12A7.7,7.7,0,0,0,1222.96,1702.76Zm-1.03,7.07v0.12l-4.92,8.72a0.434,0.434,0,0,1-.46.35,0.609,0.609,0,0,1-.46-0.35l-4.81-8.6a6.655,6.655,0,0,1,1.95-8.95,6.734,6.734,0,0,1,3.32-.95,6.184,6.184,0,0,1,5.38,3.18A6.517,6.517,0,0,1,1221.93,1709.83Zm-5.38-6.12a2.946,2.946,0,1,0,2.86,2.94A2.865,2.865,0,0,0,1216.55,1703.71Zm0,4.71a1.771,1.771,0,1,1,1.72-1.77A1.791,1.791,0,0,1,1216.55,1708.42Z" transform="translate(-1209.19 -1698.88)" fill="#d10f8d" fill-rule="evenodd"/>
    </symbol>
    <symbol id="phone" viewBox="0 0 13.1 13.1">
      <path fill-rule="evenodd" d="M12.8 9.7L11 8a1.2 1.2 0 00-1.6 0l-.7.8a.9.9 0 01-1.3 0L4.3 5.6a.9.9 0 010-1.3l.8-.7A1.2 1.2 0 005 2L3.4.3a1.2 1.2 0 00-1.6 0l-.6.6a4.2 4.2 0 000 5.9l5 5a4.1 4.1 0 006 0l.6-.5a1.2 1.2 0 000-1.6zM2.3.9a.4.4 0 01.6 0l1.6 1.6a.4.4 0 010 .5l-.3.3-2.1-2.2zm4.5 10.4l-5-5a3.4 3.4 0 01-.3-4.6l2.2 2.2a1.6 1.6 0 000 2.2L7 9.3a1.6 1.6 0 002.2 0l2.2 2.2a3.4 3.4 0 01-4.6-.2zm5.4-.6l-.3.3-2.1-2.2.2-.2a.4.4 0 01.6 0l1.6 1.6a.4.4 0 010 .5z"/>
    </symbol>
    <symbol id="place" viewBox="0 0 12 16">
      <path fill-rule="evenodd" clip-rule="evenodd" d="M6 15.5518L6.43849 15.1689C10.1258 11.9492 12 9.13792 12 6.66675C12 3.16719 9.26863 0.666748 6 0.666748C2.73137 0.666748 0 3.16719 0 6.66675C0 9.13792 1.87421 11.9492 5.56151 15.1689L6 15.5518ZM6 13.7757C2.87107 10.9558 1.33333 8.56624 1.33333 6.66676C1.33333 3.93116 3.44274 2.00009 6 2.00009C8.55726 2.00009 10.6667 3.93116 10.6667 6.66676C10.6667 8.56624 9.12893 10.9558 6 13.7757ZM6 3.3334C7.84095 3.3334 9.33333 4.82579 9.33333 6.66674C9.33333 8.50769 7.84095 10.0001 6 10.0001C4.15905 10.0001 2.66667 8.50769 2.66667 6.66674C2.66667 4.82579 4.15905 3.3334 6 3.3334ZM4 6.66675C4 5.56218 4.89543 4.66675 6 4.66675C7.10457 4.66675 8 5.56218 8 6.66675C8 7.77132 7.10457 8.66675 6 8.66675C4.89543 8.66675 4 7.77132 4 6.66675Z" fill="#BEA4E1"/>
    </symbol>
    <symbol id="time" viewBox="0 0 16 16">
      <path fill-rule="evenodd" clip-rule="evenodd" d="M7.99999 15.3334C3.9499 15.3334 0.666656 12.0502 0.666656 8.00008C0.666656 3.94999 3.9499 0.666748 7.99999 0.666748C12.0501 0.666748 15.3333 3.94999 15.3333 8.00008C15.3333 12.0502 12.0501 15.3334 7.99999 15.3334ZM7.99999 14.0001C11.3137 14.0001 14 11.3138 14 8.00009C14 4.68638 11.3137 2.00009 7.99999 2.00009C4.68628 2.00009 1.99999 4.68638 1.99999 8.00009C1.99999 11.3138 4.68628 14.0001 7.99999 14.0001ZM11.3333 7.33342H8.66666V4.00009H7.33332V8.66676H11.3333V7.33342Z" fill="#BEA4E1"/>
    </symbol>
    <symbol id="vk" viewBox="0 0 24 24">
      <path d="m12.145 19.5c3.472 0 2.234-2.198 2.502-2.83-.004-.472-.008-.926.008-1.202.22.062.739.325 1.811 1.367 1.655 1.67 2.078 2.665 3.415 2.665h2.461c.78 0 1.186-.323 1.389-.594.196-.262.388-.722.178-1.438-.549-1.724-3.751-4.701-3.95-5.015.03-.058.078-.135.103-.175h-.002c.632-.835 3.044-4.449 3.399-5.895.001-.002.002-.005.002-.008.192-.66.016-1.088-.166-1.33-.274-.362-.71-.545-1.299-.545h-2.461c-.824 0-1.449.415-1.765 1.172-.529 1.345-2.015 4.111-3.129 5.09-.034-1.387-.011-2.446.007-3.233.036-1.535.152-3.029-1.441-3.029h-3.868c-.998 0-1.953 1.09-.919 2.384.904 1.134.325 1.766.52 4.912-.76-.815-2.112-3.016-3.068-5.829-.268-.761-.674-1.466-1.817-1.466h-2.461c-.998 0-1.594.544-1.594 1.455 0 2.046 4.529 13.544 12.145 13.544zm-8.09-13.499c.217 0 .239 0 .4.457.979 2.883 3.175 7.149 4.779 7.149 1.205 0 1.205-1.235 1.205-1.7l-.001-3.702c-.066-1.225-.512-1.835-.805-2.205l3.508.004c.002.017-.02 4.095.01 5.083 0 1.403 1.114 2.207 2.853.447 1.835-2.071 3.104-5.167 3.155-5.293.075-.18.14-.241.376-.241h2.461.01c-.001.003-.001.006-.002.009-.225 1.05-2.446 4.396-3.189 5.435-.012.016-.023.033-.034.05-.327.534-.593 1.124.045 1.954h.001c.058.07.209.234.429.462.684.706 3.03 3.12 3.238 4.08-.138.022-.288.006-2.613.011-.495 0-.882-.74-2.359-2.23-1.328-1.292-2.19-1.82-2.975-1.82-1.524 0-1.413 1.237-1.399 2.733.005 1.622-.005 1.109.006 1.211-.089.035-.344.105-1.009.105-6.345 0-10.477-10.071-10.636-11.996.055-.005.812-.002 2.546-.003z"/>
    </symbol>
    <symbol id="youtube" viewBox="0 -62 512.002 512">
      <path d="m334.808594 170.992188-113.113282-61.890626c-6.503906-3.558593-14.191406-3.425781-20.566406.351563-6.378906 3.78125-10.183594 10.460937-10.183594 17.875v122.71875c0 7.378906 3.78125 14.046875 10.117188 17.832031 3.308594 1.976563 6.976562 2.96875 10.652344 2.96875 3.367187 0 6.742187-.832031 9.847656-2.503906l113.117188-60.824219c6.714843-3.613281 10.90625-10.59375 10.9375-18.222656.027343-7.628906-4.113282-14.640625-10.808594-18.304687zm-113.859375 63.617187v-91.71875l84.539062 46.257813zm0 0"/><path d="m508.234375 91.527344-.023437-.234375c-.433594-4.121094-4.75-40.777344-22.570313-59.421875-20.597656-21.929688-43.949219-24.59375-55.179687-25.871094-.929688-.105469-1.78125-.203125-2.542969-.304688l-.894531-.09375c-67.6875-4.921874-169.910157-5.5937495-170.933594-5.59765575l-.089844-.00390625-.089844.00390625c-1.023437.00390625-103.246094.67578175-171.542968 5.59765575l-.902344.09375c-.726563.097657-1.527344.1875-2.398438.289063-11.101562 1.28125-34.203125 3.949219-54.859375 26.671875-16.972656 18.445312-21.878906 54.316406-22.382812 58.347656l-.058594.523438c-.152344 1.714844-3.765625 42.539062-3.765625 83.523437v38.3125c0 40.984375 3.613281 81.808594 3.765625 83.527344l.027344.257813c.433593 4.054687 4.746093 40.039062 22.484375 58.691406 19.367187 21.195312 43.855468 24 57.027344 25.507812 2.082031.238282 3.875.441406 5.097656.65625l1.183594.164063c39.082031 3.71875 161.617187 5.550781 166.8125 5.625l.15625.003906.15625-.003906c1.023437-.003907 103.242187-.675781 170.929687-5.597657l.894531-.09375c.855469-.113281 1.816406-.214843 2.871094-.324218 11.039062-1.171875 34.015625-3.605469 54.386719-26.019532 16.972656-18.449218 21.882812-54.320312 22.382812-58.347656l.058594-.523437c.152344-1.71875 3.769531-42.539063 3.769531-83.523438v-38.3125c-.003906-40.984375-3.617187-81.804687-3.769531-83.523437zm-26.238281 121.835937c0 37.933594-3.3125 77-3.625 80.585938-1.273438 9.878906-6.449219 32.574219-14.71875 41.5625-12.75 14.027343-25.847656 15.417969-35.410156 16.429687-1.15625.121094-2.226563.238282-3.195313.359375-65.46875 4.734375-163.832031 5.460938-168.363281 5.488281-5.082032-.074218-125.824219-1.921874-163.714844-5.441406-1.941406-.316406-4.039062-.558594-6.25-.808594-11.214844-1.285156-26.566406-3.042968-38.371094-16.027343l-.277344-.296875c-8.125-8.464844-13.152343-29.6875-14.429687-41.148438-.238281-2.710937-3.636719-42.238281-3.636719-80.703125v-38.3125c0-37.890625 3.304688-76.914062 3.625-80.574219 1.519532-11.636718 6.792969-32.957031 14.71875-41.574218 13.140625-14.453125 26.996094-16.054688 36.160156-17.113282.875-.101562 1.691407-.195312 2.445313-.292968 66.421875-4.757813 165.492187-5.464844 169.046875-5.492188 3.554688.023438 102.589844.734375 168.421875 5.492188.808594.101562 1.691406.203125 2.640625.3125 9.425781 1.074218 23.671875 2.699218 36.746094 16.644531l.121094.128906c8.125 8.464844 13.152343 30.058594 14.429687 41.75.226563 2.558594 3.636719 42.171875 3.636719 80.71875zm0 0"/>
    </symbol></svg>