<svg xmlns="http://www.w3.org/2000/svg" width="22.156" height="21.32" viewBox="0 0 22.156 21.32">
  <metadata><?xpacket begin="﻿" id="W5M0MpCehiHzreSzNTczkc9d"?>
<x:xmpmeta xmlns:x="adobe:ns:meta/" x:xmptk="Adobe XMP Core 5.6-c142 79.160924, 2017/07/13-01:06:39        ">
   <rdf:RDF xmlns:rdf="http://www.w3.org/1999/02/22-rdf-syntax-ns#">
      <rdf:Description rdf:about=""/>
   </rdf:RDF>
</x:xmpmeta>
                                                                                                    
                                                                                                    
                                                                                                    
                                                                                                    
                                                                                                    
                                                                                                    
                                                                                                    
                                                                                                    
                                                                                                    
                                                                                                    
                                                                                                    
                                                                                                    
                                                                                                    
                                                                                                    
                                                                                                    
                                                                                                    
                                                                                                    
                                                                                                    
                                                                                                    
                                                                                                    
                           
<?xpacket end="w"?></metadata>
<defs>
    <style>
      .cls-1 {
        fill: #d10f8d;
        fill-rule: evenodd;
      }
    </style>
  </defs>
  <path id="Forma_1" data-name="Forma 1" class="cls-1" d="M890.934,1699.48h-2.767v-0.71a0.692,0.692,0,1,0-1.383,0v0.71h-6.917v-0.71a0.692,0.692,0,1,0-1.384,0v0.71h-2.766a3.47,3.47,0,0,0-3.459,3.55v12.79a3.479,3.479,0,0,0,3.459,3.56h15.217a3.479,3.479,0,0,0,3.459-3.56v-12.79A3.47,3.47,0,0,0,890.934,1699.48Zm-17.292,3.55a2.153,2.153,0,0,1,2.075-2.13h2.766v0.71a0.692,0.692,0,1,0,1.384,0v-0.71h6.917v0.71a0.692,0.692,0,1,0,1.383,0v-0.71h2.767a2.153,2.153,0,0,1,2.075,2.13v2.13H873.642v-2.13Zm19.367,12.79a2.162,2.162,0,0,1-2.075,2.14H875.717a2.162,2.162,0,0,1-2.075-2.14v-9.23h19.367v9.23Zm-15.909,0a1.247,1.247,0,0,0,.968-0.42,1.567,1.567,0,0,0,.415-1,1.544,1.544,0,0,0-.415-0.99,1.383,1.383,0,0,0-2.351.99,1.567,1.567,0,0,0,.415,1A1.247,1.247,0,0,0,877.1,1715.82Zm0-4.26a1.224,1.224,0,0,0,.968-0.43,1.544,1.544,0,0,0,.415-0.99,1.588,1.588,0,0,0-.415-1,1.383,1.383,0,0,0-2.351,1,1.284,1.284,0,0,0,.415.99A1.224,1.224,0,0,0,877.1,1711.56Zm4.15,4.26a1.251,1.251,0,0,0,.969-0.42,1.573,1.573,0,0,0,.415-1,1.549,1.549,0,0,0-.415-0.99,1.311,1.311,0,0,0-1.937,0,1.544,1.544,0,0,0-.415.99,1.567,1.567,0,0,0,.415,1A1.249,1.249,0,0,0,881.25,1715.82Zm0-4.26a1.227,1.227,0,0,0,.969-0.43,1.549,1.549,0,0,0,.415-0.99,1.594,1.594,0,0,0-.415-1,1.327,1.327,0,0,0-1.937,0,1.588,1.588,0,0,0-.415,1,1.544,1.544,0,0,0,.415.99A1.225,1.225,0,0,0,881.25,1711.56Zm4.151,4.26a1.25,1.25,0,0,0,.968-0.42,1.324,1.324,0,0,0,.415-1,1.384,1.384,0,0,0-2.352-.99,1.544,1.544,0,0,0-.415.99,1.567,1.567,0,0,0,.415,1A1.249,1.249,0,0,0,885.4,1715.82Zm0-4.26a1.226,1.226,0,0,0,.968-0.43,1.287,1.287,0,0,0,.415-0.99,1.594,1.594,0,0,0-.415-1,1.327,1.327,0,0,0-1.937,0,1.588,1.588,0,0,0-.415,1,1.544,1.544,0,0,0,.415.99A1.226,1.226,0,0,0,885.4,1711.56Zm4.15,4.26a1.249,1.249,0,0,0,.968-0.42,1.567,1.567,0,0,0,.415-1,1.544,1.544,0,0,0-.415-0.99,1.384,1.384,0,0,0-2.352.99,1.573,1.573,0,0,0,.415,1A1.251,1.251,0,0,0,889.551,1715.82Zm0-4.26a1.225,1.225,0,0,0,.968-0.43,1.284,1.284,0,0,0,.415-0.99,1.588,1.588,0,0,0-.415-1,1.327,1.327,0,0,0-1.937,0,1.594,1.594,0,0,0-.415,1,1.549,1.549,0,0,0,.415.99A1.227,1.227,0,0,0,889.551,1711.56Z" transform="translate(-872.25 -1698.06)"/>
</svg>
