<svg xmlns="http://www.w3.org/2000/svg" width="14.78" height="21.31" viewBox="0 0 14.78 21.31">
  <metadata><?xpacket begin="﻿" id="W5M0MpCehiHzreSzNTczkc9d"?>
<x:xmpmeta xmlns:x="adobe:ns:meta/" x:xmptk="Adobe XMP Core 5.6-c142 79.160924, 2017/07/13-01:06:39        ">
   <rdf:RDF xmlns:rdf="http://www.w3.org/1999/02/22-rdf-syntax-ns#">
      <rdf:Description rdf:about=""/>
   </rdf:RDF>
</x:xmpmeta>
                                                                                                    
                                                                                                    
                                                                                                    
                                                                                                    
                                                                                                    
                                                                                                    
                                                                                                    
                                                                                                    
                                                                                                    
                                                                                                    
                                                                                                    
                                                                                                    
                                                                                                    
                                                                                                    
                                                                                                    
                                                                                                    
                                                                                                    
                                                                                                    
                                                                                                    
                                                                                                    
                           
<?xpacket end="w"?></metadata>
<defs>
    <style>
      .cls-1 {
        fill: #d10f8d;
        fill-rule: evenodd;
      }
    </style>
  </defs>
  <path id="pcale2" class="cls-1" d="M1222.96,1702.76a7.159,7.159,0,0,0-6.41-3.88,7.556,7.556,0,0,0-3.9,1.18c-3.43,2.12-4.46,6.95-2.4,10.6l4.81,8.59a1.643,1.643,0,0,0,2.98,0l4.92-8.83v-0.12A7.7,7.7,0,0,0,1222.96,1702.76Zm-1.03,7.07v0.12l-4.92,8.72a0.434,0.434,0,0,1-.46.35,0.609,0.609,0,0,1-.46-0.35l-4.81-8.6a6.655,6.655,0,0,1,1.95-8.95,6.734,6.734,0,0,1,3.32-.95,6.184,6.184,0,0,1,5.38,3.18A6.517,6.517,0,0,1,1221.93,1709.83Zm-5.38-6.12a2.946,2.946,0,1,0,2.86,2.94A2.865,2.865,0,0,0,1216.55,1703.71Zm0,4.71a1.771,1.771,0,1,1,1.72-1.77A1.791,1.791,0,0,1,1216.55,1708.42Z" transform="translate(-1209.19 -1698.88)"/>
</svg>
